<svg xmlns="http://www.w3.org/2000/svg" viewBox="0 0 64 64" fill="none">
  <!-- 文档底座 -->
  <path d="M12 8C12 5.79086 13.7909 4 16 4H40L52 16V56C52 58.2091 50.2091 60 48 60H16C13.7909 60 12 58.2091 12 56V8Z" stroke="#1D1D1F" stroke-width="2.5"/>
  <!-- 折角 -->
  <path d="M40 4V12C40 14.2091 41.7909 16 44 16H52" stroke="#1D1D1F" stroke-width="2.5" stroke-linecap="round" stroke-linejoin="round"/>
  <!-- G 字母 -->
  <path d="M40 28C38 26 35.5 24 32 24C27 24 23 28 23 33C23 38 27 42 32 42C36 42 39 39 40 36M32 33H40" stroke="#1D1D1F" stroke-width="3.5" stroke-linecap="round"/>
  <!-- 底部成员点 -->
  <circle cx="20" cy="52" r="3" fill="#1D1D1F"/>
  <circle cx="32" cy="52" r="3" fill="#1D1D1F"/>
  <circle cx="44" cy="52" r="3" fill="#1D1D1F"/>
</svg>